<svg xmlns="http://www.w3.org/2000/svg" viewBox="31.6 31.6 438.42 438.42"><path fill="#603BFF" d="M256 31.6c-33.5 0-212.4 191.6-198.6 243.7 6.4 23.9 79.1 28.1 79.1 28.1s24.2 52.4 16.8 78.5c-2.9 10.2-33.1 46.3 16.7 77.8 0 0 28-17.6 29.5-53.3-.2 3.7-2.4 51.9 29.1 63.6 0 0 27.3-5.8 27.3-60.3 0 54.5 27.3 60.3 27.3 60.3 31.6-11.7 29.4-59.9 29.1-63.6 1.5 35.7 29.6 53.3 29.6 53.3 49.8-31.6 19.6-67.7 16.7-77.8-7.4-26.1 16.8-78.5 16.8-78.5s72.7-4.2 79.1-28.1c13.9-52-165-243.7-198.5-243.7"/><path fill="#502087" d="M309.6 341.7c-34.3 0-37.5-14.2-53.6-14.2s-19.3 14.2-53.6 14.2c-36.1 0-65.5-33.9-65.5-75.8 0-39.4 24.8-79.1 76.3-74.6 26 2.2 32.8 13.1 42.8 13.1s16.8-10.9 42.8-13.1c51.5-4.4 76.3 35.3 76.3 74.6 0 41.9-29.3 75.8-65.5 75.8"/><path fill="#FFF" d="M306.5 199.5c-22.3 0-41.4 13.9-50.5 34.1-9-20.2-28.2-34.1-50.4-34.1-30.9 0-55.9 26.9-55.9 60s25.1 60 55.9 60c22.2 0 41.4-13.9 50.4-34.1 9 20.2 28.2 34.1 50.5 34.1 30.9 0 55.9-26.9 55.9-60s-25.1-60-55.9-60m-96.6 71.9c-18.3 0-33.1-14-33.1-31.2 0-17.3 14.8-31.3 33.1-31.3s33.1 14 33.1 31.3c0 17.2-14.9 31.2-33.1 31.2m92.3 0c-18.3 0-33.1-14-33.1-31.2 0-17.3 14.8-31.3 33.1-31.3s33.1 14 33.1 31.3c0 17.2-14.9 31.2-33.1 31.2"/></svg>